<svg width="26" height="23" viewBox="0 0 26 23" fill="none" xmlns="http://www.w3.org/2000/svg">
<path d="M12.4868 0C9.78367 0 7.6825 1.04308e-07 6.04683 0.175C4.3925 0.3535 3.08233 0.723333 2.037 1.55867C0.963667 2.41733 0.462 3.53383 0.225167 4.942C-5.21541e-08 6.286 0 7.99633 0 10.129V10.3425C0 12.4215 5.21541e-08 13.86 0.233333 14.9322C0.359333 15.5097 0.557667 16.0113 0.869167 16.4757C1.17717 16.933 1.56917 17.318 2.037 17.6913C2.77317 18.2805 3.64117 18.6363 4.66667 18.858V21.875C4.6668 22.0283 4.70721 22.1789 4.78385 22.3116C4.86049 22.4444 4.97066 22.5547 5.10334 22.6315C5.23602 22.7083 5.38654 22.7489 5.53984 22.7492C5.69314 22.7495 5.84384 22.7096 5.97683 22.6333C6.6605 22.2425 7.266 21.8167 7.82017 21.4153L8.17483 21.1575C8.56946 20.8621 8.97252 20.5781 9.3835 20.3058C10.3682 19.6665 11.3085 19.25 12.5417 19.25H12.5965C15.2997 19.25 17.4008 19.25 19.0365 19.075C20.6908 18.8965 22.001 18.5267 23.0463 17.6913C23.513 17.318 23.9062 16.933 24.213 16.4757C24.5257 16.0113 24.724 15.5097 24.85 14.9322C25.0833 13.86 25.0833 12.4215 25.0833 10.3425V10.129C25.0833 7.99633 25.0833 6.286 24.8582 4.94317C24.6213 3.53383 24.1197 2.41733 23.0463 1.55867C22.001 0.722167 20.6908 0.3535 19.0365 0.176167C17.4008 3.47694e-08 15.2997 0 12.5965 0H12.4868Z" fill="#F2F4F9"/>
</svg>
