<svg width="26" height="35" viewBox="0 0 26 35" fill="none" xmlns="http://www.w3.org/2000/svg">
<path d="M13.3684 0C14.8042 0 16.1811 0.570353 17.1964 1.58559C18.2116 2.60082 18.782 3.97778 18.782 5.41353V16.2406C18.782 17.6764 18.2116 19.0533 17.1964 20.0685C16.1811 21.0838 14.8042 21.6541 13.3684 21.6541C11.9327 21.6541 10.5557 21.0838 9.54048 20.0685C8.52524 19.0533 7.95489 17.6764 7.95489 16.2406V5.41353C7.95489 3.97778 8.52524 2.60082 9.54048 1.58559C10.5557 0.570353 11.9327 0 13.3684 0ZM26 16.2406C26 22.6105 21.2902 27.8617 15.1729 28.7459V34.2857H11.5639V28.7459C5.44662 27.8617 0.736847 22.6105 0.736847 16.2406H4.34587C4.34587 18.6335 5.29646 20.9285 6.98852 22.6205C8.68057 24.3126 10.9755 25.2632 13.3684 25.2632C15.7614 25.2632 18.0563 24.3126 19.7483 22.6205C21.4404 20.9285 22.391 18.6335 22.391 16.2406H26Z" fill="#2356A8"/>
</svg>
