<svg width="23" height="23" viewBox="0 0 23 23" fill="none" xmlns="http://www.w3.org/2000/svg">
<path fill-rule="evenodd" clip-rule="evenodd" d="M8.48835 0.402317C10.7499 -0.21175 13.1451 -0.12023 15.3532 0.664623C17.5614 1.44947 19.477 2.8902 20.8437 4.79388V2.51544C20.8437 2.22951 20.9573 1.95528 21.1594 1.75309C21.3616 1.5509 21.6359 1.43732 21.9218 1.43732C22.2077 1.43732 22.482 1.5509 22.6841 1.75309C22.8863 1.95528 22.9999 2.22951 22.9999 2.51544V8.62482H16.8905C16.6046 8.62482 16.3304 8.51123 16.1282 8.30904C15.926 8.10685 15.8124 7.83263 15.8124 7.54669C15.8124 7.26076 15.926 6.98653 16.1282 6.78434C16.3304 6.58215 16.6046 6.46857 16.8905 6.46857H19.3731C18.2471 4.70689 16.5627 3.37379 14.5895 2.68252C12.6163 1.99126 10.4682 1.98177 8.48896 2.65559C6.50971 3.32941 4.81364 4.64759 3.67209 6.39925C2.53054 8.15091 2.00947 10.2348 2.19225 12.3176C2.37502 14.4004 3.25108 16.3617 4.68026 17.8878C6.10945 19.4139 8.00917 20.4165 10.0755 20.7353C12.1419 21.0541 14.2555 20.6706 16.0781 19.6463C17.9008 18.6219 19.3272 17.0158 20.1292 15.0849C20.1813 14.9511 20.2596 14.829 20.3595 14.7258C20.4594 14.6226 20.5789 14.5404 20.711 14.484C20.8431 14.4277 20.9852 14.3983 21.1288 14.3976C21.2725 14.3969 21.4148 14.4249 21.5474 14.48C21.6801 14.5351 21.8004 14.6161 21.9013 14.7183C22.0022 14.8205 22.0817 14.9419 22.135 15.0752C22.1884 15.2086 22.2145 15.3513 22.212 15.4949C22.2094 15.6385 22.1782 15.7801 22.1202 15.9115C21.371 17.7149 20.1748 19.2978 18.6446 20.511C17.1143 21.7242 15.3003 22.5277 13.3736 22.8459C11.4468 23.164 9.47082 22.9862 7.63179 22.3293C5.79276 21.6724 4.1513 20.558 2.86214 19.0912C1.57298 17.6244 0.678584 15.8534 0.263267 13.9452C-0.152049 12.0371 -0.0746096 10.0546 0.488287 8.18464C1.05118 6.3147 2.081 4.61889 3.48065 3.25708C4.8803 1.89528 6.60369 0.91376 8.48835 0.402317Z" fill="#A9C1DE"/>
</svg>
